<svg xmlns="http://www.w3.org/2000/svg" viewBox="0 0 800 260" font-family="-apple-system, 'Segoe UI', Roboto, sans-serif">
  <rect x="0" y="0" width="800" height="260" rx="12" fill="#ffffff" stroke="#cbd5e1"/>

  <defs>
    <marker id="arrow" markerWidth="10" markerHeight="10" refX="8" refY="3" orient="auto">
      <path d="M0,0 L8,3 L0,6 Z" fill="#475569"/>
    </marker>
  </defs>

  <!-- App -->
  <rect x="25" y="80" width="130" height="70" rx="8" fill="#fee2e2" stroke="#dc2626" stroke-width="1.5"/>
  <text x="90" y="110" text-anchor="middle" font-size="14" font-weight="600" fill="#7f1d1d">App Java</text>
  <text x="90" y="130" text-anchor="middle" font-size="11" fill="#7f1d1d">Logback / Log4j2</text>

  <!-- Log file -->
  <rect x="205" y="80" width="130" height="70" rx="8" fill="#fef3c7" stroke="#d97706" stroke-width="1.5"/>
  <text x="270" y="106" text-anchor="middle" font-size="14" font-weight="600" fill="#92400e">app.log</text>
  <text x="270" y="126" text-anchor="middle" font-size="11" fill="#92400e">1 stacktrace =</text>
  <text x="270" y="140" text-anchor="middle" font-size="11" fill="#92400e">40 lignes</text>

  <!-- Filebeat -->
  <rect x="385" y="80" width="140" height="70" rx="8" fill="#dbeafe" stroke="#2563eb" stroke-width="1.5"/>
  <text x="455" y="106" text-anchor="middle" font-size="14" font-weight="600" fill="#1e3a8a">Filebeat</text>
  <text x="455" y="126" text-anchor="middle" font-size="11" fill="#1e3a8a">parser multiline</text>
  <text x="455" y="140" text-anchor="middle" font-size="11" fill="#1e3a8a">→ 1 événement</text>

  <!-- Elasticsearch -->
  <rect x="575" y="80" width="130" height="70" rx="8" fill="#dcfce7" stroke="#16a34a" stroke-width="1.5"/>
  <text x="640" y="106" text-anchor="middle" font-size="14" font-weight="600" fill="#14532d">Elasticsearch</text>
  <text x="640" y="126" text-anchor="middle" font-size="11" fill="#14532d">pipeline</text>
  <text x="640" y="140" text-anchor="middle" font-size="11" fill="#14532d">d'ingestion (grok)</text>

  <!-- Arrows -->
  <line x1="155" y1="115" x2="199" y2="115" stroke="#475569" stroke-width="2" marker-end="url(#arrow)"/>
  <line x1="335" y1="115" x2="379" y2="115" stroke="#475569" stroke-width="2" marker-end="url(#arrow)"/>
  <line x1="525" y1="115" x2="569" y2="115" stroke="#475569" stroke-width="2" marker-end="url(#arrow)"/>

  <text x="400" y="40" text-anchor="middle" font-size="15" font-weight="700" fill="#334155">Le voyage d'une stacktrace, du fichier de log à Kibana</text>
  <text x="400" y="215" text-anchor="middle" font-size="12" fill="#64748b">Le regroupement multiligne se fait dans Filebeat, l'extraction des champs dans Elasticsearch</text>
</svg>
